<?xml version="1.0" standalone="no"?>
<!DOCTYPE svg PUBLIC "-//W3C//DTD SVG 20010904//EN"
 "http://www.w3.org/TR/2001/REC-SVG-20010904/DTD/svg10.dtd">
<svg version="1.0" xmlns="http://www.w3.org/2000/svg"
 width="512.000000pt" height="512.000000pt" viewBox="0 0 512.000000 512.000000"
 preserveAspectRatio="xMidYMid meet">
<metadata>
Created by potrace 1.14, written by Peter Selinger 2001-2017
</metadata>
<g transform="translate(0.000000,512.000000) scale(0.100000,-0.100000)"
fill="#000000" stroke="none">
<path d="M1495 5029 c-33 -3 -71 -11 -85 -18 -27 -13 -69 -68 -75 -98 -2 -10
-4 -443 -4 -963 l-1 -945 -298 -2 c-903 -5 -907 -5 -985 -40 -79 -35 -57 -105
81 -259 53 -60 106 -118 117 -130 18 -19 108 -118 170 -189 57 -65 227 -298
320 -439 211 -316 368 -427 554 -392 56 11 106 47 226 165 116 113 192 169
255 189 112 35 195 9 293 -90 70 -73 105 -132 282 -483 89 -176 176 -344 194
-373 17 -29 31 -55 31 -57 0 -4 98 -156 105 -163 2 -3 2 114 0 259 -7 408 -14
859 -20 1254 -3 198 -8 479 -10 625 -3 146 -7 432 -10 635 -3 204 -8 467 -11
585 -2 118 -7 351 -10 518 -5 298 -5 304 -29 341 -45 72 -38 71 -562 74 -257
1 -495 -1 -528 -4z"/>
<path d="M2799 3991 c-1 -3 0 -89 1 -191 1 -102 3 -269 4 -372 1 -160 3 -188
16 -189 18 0 2010 0 2057 0 l32 1 -4 103 c-12 241 -21 275 -90 336 -77 68
-239 127 -395 146 -105 12 -154 18 -177 21 -16 2 -140 6 -278 9 -408 8 -668
15 -705 19 -170 16 -301 46 -392 91 -38 18 -69 30 -69 26z"/>
<path d="M2815 2768 c3 -167 7 -429 10 -583 2 -154 7 -453 11 -665 3 -212 7
-477 9 -590 4 -222 -4 -276 -41 -311 l-23 -22 32 -41 c39 -50 158 -169 216
-216 79 -64 215 -151 311 -198 79 -39 105 -47 151 -47 119 0 145 94 125 455
-4 74 -8 144 -10 154 -4 29 12 106 31 151 99 230 407 530 729 712 85 48 182
88 277 115 95 26 154 58 221 119 96 88 170 213 215 366 29 99 32 117 36 230 5
116 -5 158 -61 273 -62 128 -98 237 -119 363 l-6 37 -1060 0 -1059 0 5 -302z"/>
</g>
</svg>
